<?xml version="1.0" standalone="no"?>
<!DOCTYPE svg PUBLIC "-//W3C//DTD SVG 20010904//EN"
 "http://www.w3.org/TR/2001/REC-SVG-20010904/DTD/svg10.dtd">
<svg version="1.0" xmlns="http://www.w3.org/2000/svg"
 width="366.000000pt" height="366.000000pt" viewBox="0 0 366.000000 366.000000"
 preserveAspectRatio="xMidYMid meet">
<metadata>
Created by potrace 1.11, written by Peter Selinger 2001-2013
</metadata>
<g transform="translate(0.000000,366.000000) scale(0.100000,-0.100000)"
fill="#000000" stroke="none">
<path d="M2529 2917 c-31 -18 -62 -37 -70 -43 -8 -6 -34 -23 -59 -36 -25 -14
-162 -96 -305 -183 -143 -87 -411 -249 -595 -360 -184 -111 -399 -241 -478
-289 -136 -82 -144 -85 -170 -73 -15 7 -33 12 -39 11 -7 -1 -22 -2 -34 -3 -12
0 -36 -16 -55 -35 -29 -29 -34 -41 -34 -79 0 -83 66 -134 152 -116 46 10 49 9
135 -43 48 -29 90 -56 91 -60 2 -5 7 -8 12 -8 4 0 205 -121 446 -270 417 -256
438 -271 440 -300 8 -102 139 -146 207 -70 15 16 28 39 28 50 1 11 2 26 3 33
5 30 -19 70 -56 94 -37 25 -43 26 -91 16 l-52 -11 -100 61 c-55 33 -122 75
-150 92 -45 29 -403 248 -703 431 -94 58 -118 77 -120 97 -2 19 3 29 22 39 14
7 142 83 283 169 304 184 1072 648 1260 761 l133 80 -19 27 c-10 14 -20 31
-22 38 -3 8 -23 1 -60 -20z"/>
</g>
</svg>
